<svg xmlns="http://www.w3.org/2000/svg" fill-rule="evenodd" viewBox="0 0 100 100">
    <path d="M97.945 50.813a1.5 1.5 0 0 0-2.004-.694L85.33 55.274l-7.231 3.132a208.376 208.376 0 0 1-6.528-1.794l-1.256-.468a1.489 1.489 0 0 0-.558-.091c-.888-.287-1.66-.559-2.18-.788-2.494-1.098-6.95-3.679-8.746-5.237-2.029-1.754-7.315-8.264-7.368-8.33a1.5 1.5 0 0 0-1.858-.386c-1.454.757-6.17 2.754-8.667 2.028-1.318-.392-3.757-1.73-4.447-2.563-.46-.554-.852-2.551-.645-3.189.539-.273 2.583.073 3.584.242 1.713.29 3.333.564 4.584.159 2.436-.787 7.348-4.984 8.532-6.016 1.175-.429 6.972-2.383 11.015-.775a16.299 16.299 0 0 0 6.057 1.142c4.001 0 6.952-1.375 7.171-1.48l14.736-7.875a1.501 1.501 0 0 0-1.414-2.646l-14.67 7.841c-.051.024-5.269 2.418-10.771.23-4.792-1.908-11.009-.011-12.894.651-2.091-.793-7.969-2.896-10.581-2.5-2.438.374-9.538.709-12.414.178-1.214-.343-10.436-5.333-18.495-9.853a1.5 1.5 0 1 0-1.468 2.617c5.271 2.957 17.711 9.866 19.367 10.175 3.518.652 11.078.214 13.461-.151 1.178-.179 4.378.702 7.179 1.66-2.094 1.713-4.594 3.578-5.734 3.946-.554.179-1.999-.066-3.161-.263-2.377-.402-4.834-.818-6.274.643-1.607 1.647-.644 5.771.524 7.177 1.205 1.455 4.25 3.034 5.911 3.527 3.232.939 7.701-.769 9.792-1.714 1.582 1.919 5.23 6.275 6.982 7.79 2.186 1.897 7.087 4.652 9.501 5.715.94.414 2.529.932 4.227 1.439l7.035 2.621c.368.19.647.544.83 1.054.318.887.254 2.071-.157 2.943a2.592 2.592 0 0 1-2.695 1.452 1.504 1.504 0 0 0-.693-.2l-9.538-4.948a1.5 1.5 0 1 0-1.381 2.663l9.606 4.982c.029.014.059.022.088.036.073.38.005.644-.103.992a4.914 4.914 0 0 0-.201.825c-.63 1.164-2.056 1.679-3.279 1.153l-8.051-3.499c-.036-.016-.073-.022-.11-.035-.048-.017-.096-.035-.144-.046-.049-.012-.099-.018-.148-.024-.048-.006-.095-.014-.142-.016-.051-.002-.101.002-.151.006-.046.003-.092.004-.137.012-.05.008-.098.021-.146.034-.044.012-.089.022-.132.038-.046.017-.089.039-.133.06-.043.021-.086.04-.127.065-.041.024-.078.054-.116.082a1.45 1.45 0 0 0-.116.091c-.035.032-.066.068-.098.103-.034.038-.069.074-.099.115-.029.039-.052.082-.078.124-.021.035-.045.065-.063.102-.006.012-.008.025-.014.037-.005.011-.013.02-.017.031-.015.034-.021.068-.033.103-.018.051-.037.102-.049.153-.011.046-.016.093-.022.14-.007.05-.015.1-.016.15-.002.048.002.096.005.144s.005.096.012.144c.008.048.021.095.033.142.012.046.023.091.039.136.017.045.038.089.059.132.02.043.04.086.064.126.025.042.055.081.084.12.028.039.056.077.088.113.033.037.071.069.109.103.036.032.07.065.109.094.041.03.086.056.131.082.032.02.061.043.095.06l2.146 1.063a2.564 2.564 0 0 1 1.216 3.408 2.569 2.569 0 0 1-1.467 1.331 2.519 2.519 0 0 1-1.944-.098l-6.035-2.851 1.72-2.918c1.656-2.799.724-6.429-2.076-8.091l-.002-.001a5.92 5.92 0 0 0-3.993-.742c.273-2.673-.946-5.371-3.359-6.806l-.008-.005c-2.397-1.408-5.303-1.208-7.502.256a5.909 5.909 0 0 0-2.589-3.213c-2.821-1.656-6.461-.723-8.114 2.078l-4.022 6.807-9.844-7.042c-.035-.025-.074-.042-.111-.063-.036-.021-.068-.047-.106-.065L4.06 50.122a1.5 1.5 0 1 0-1.31 2.699l10.527 5.114 10.096 7.223a5.932 5.932 0 0 0 2.661 6.819 5.898 5.898 0 0 0 3 .819c.329 0 .655-.037.978-.091-.284 2.696.946 5.418 3.383 6.86a6.878 6.878 0 0 0 3.502.958 7.09 7.09 0 0 0 1.873-.254 7.185 7.185 0 0 0 2.118-.977 5.926 5.926 0 0 0 2.593 3.192 5.929 5.929 0 0 0 8.101-2.08l1.597-2.711 6.279 2.967a5.511 5.511 0 0 0 4.238.213 5.54 5.54 0 0 0 3.171-2.875 5.531 5.531 0 0 0 .503-2.892l1.546.672a5.501 5.501 0 0 0 2.185.451 5.602 5.602 0 0 0 5.132-3.359c.083-.189.125-.386.125-.592.004-.055.056-.219.093-.339.11-.355.258-.83.277-1.445a5.592 5.592 0 0 0 4.286-3.14c.754-1.596.857-3.604.27-5.241a5.241 5.241 0 0 0-.813-1.462l6.081-2.634c.011-.005.02-.012.031-.018.009-.004.019-.005.028-.01l10.641-5.169a1.504 1.504 0 0 0 .693-2.007zM27.557 69.389a2.924 2.924 0 0 1-1.044-3.994l4.854-8.217a2.917 2.917 0 0 1 2.518-1.426c.507 0 1.021.131 1.488.405a2.924 2.924 0 0 1 1.029 3.99l-4.852 8.218a2.92 2.92 0 0 1-3.993 1.024zm10.421 7.983a3.936 3.936 0 0 1-3.06-.394c-1.923-1.138-2.533-3.69-1.362-5.687l6.284-10.626a4.208 4.208 0 0 1 3.616-2.093c.688 0 1.38.175 2.01.544 1.911 1.139 2.51 3.682 1.335 5.669l-6.28 10.625a4.241 4.241 0 0 1-2.543 1.962zm11.021 1.502a2.926 2.926 0 0 1-3.993 1.023c-1.392-.824-1.86-2.617-1.042-3.998l4.85-8.217a2.917 2.917 0 0 1 2.516-1.424 2.916 2.916 0 0 1 2.516 4.394l-2.035 3.454a1.486 1.486 0 0 0-.997.808 1.485 1.485 0 0 0-.085 1.029l-1.73 2.931z"/>
</svg>
