<svg xmlns="http://www.w3.org/2000/svg" fill-rule="evenodd" viewBox="0 0 100 100">
    <path d="M77.64 24.56a19.09 19.09 0 0 0-7.58 1.57A25.28 25.28 0 0 0 44.71 3.5c-14 0-25.45 11.17-25.45 24.9a24.24 24.24 0 0 0 .44 4.6 14.4 14.4 0 1 0-2.53 28.5h.5a1.5 1.5 0 1 0 0-3h-.5a11.38 11.38 0 1 1 0-22.75 11.91 11.91 0 0 1 4.08.73 1.5 1.5 0 0 0 1.95-1.85 21.43 21.43 0 0 1-.94-6.24c0-12.08 10.07-21.9 22.45-21.9s22.45 9.83 22.45 21.86v.18a1.5 1.5 0 0 0 2.27 1.29 16.11 16.11 0 0 1 8.22-2.26 15.46 15.46 0 1 1 .55 30.91h-6.11a1.5 1.5 0 1 0 0 3h6.15a1.47 1.47 0 0 0 .35 0 18.45 18.45 0 0 0-.95-36.89Z"/>
    <path d="m73.94 77.94-9.44 9.44V43a1.5 1.5 0 0 0-3 0v44.38l-9.44-9.44a1.5 1.5 0 1 0-2.12 2.12l12 12a1.5 1.5 0 0 0 2.12 0l12-12a1.5 1.5 0 0 0-2.12-2.12Zm-23.88-24-12-12a1.5 1.5 0 0 0-2.12 0l-12 12a1.5 1.5 0 0 0 2.12 2.12l9.44-9.44V91a1.5 1.5 0 0 0 3 0V46.62l9.44 9.44a1.5 1.5 0 0 0 2.12-2.12Zm7.53-29.42a1.5 1.5 0 0 0 2.81-1A16.61 16.61 0 0 0 45 12.5a1.5 1.5 0 0 0 0 3 13.6 13.6 0 0 1 12.59 9.02Z"/>
</svg>
