<svg xmlns="http://www.w3.org/2000/svg" fill-rule="evenodd" viewBox="0 0 100 100">
    <path d="m94.372 48.394-3.069-6.951a1.498 1.498 0 0 0-2.011-.751l-8.146 3.834a1.5 1.5 0 1 0 1.278 2.714l4.312-2.03-11.321 26.625-6.43-11.601a1.524 1.524 0 0 0-1.372-.772 1.501 1.501 0 0 0-1.306.879l-9.659 21.282-5.801-9.482a1.5 1.5 0 0 0-2.633.137L36.685 96.434a1.5 1.5 0 0 0 2.707 1.293l10.339-21.661 5.835 9.537a1.501 1.501 0 0 0 2.645-.163l9.596-21.142 6.474 11.681a1.5 1.5 0 0 0 2.692-.14l12.871-30.271 1.784 4.039a1.5 1.5 0 1 0 2.744-1.213zm-58.414-8.032c10.194 0 18.488-8.292 18.488-18.485 0-10.192-8.294-18.484-18.488-18.484-10.19 0-18.48 8.292-18.48 18.484.001 10.193 8.291 18.485 18.48 18.485zm0-33.97c8.54 0 15.488 6.946 15.488 15.484 0 8.539-6.948 15.485-15.488 15.485-8.536 0-15.48-6.947-15.48-15.485.001-8.537 6.945-15.484 15.48-15.484zm1.042 72a1.5 1.5 0 0 0-1.5-1.5H7.09c.785-16.098 14.128-28.954 30.417-28.954a30.39 30.39 0 0 1 20.38 7.824 1.5 1.5 0 1 0 2.008-2.228 33.387 33.387 0 0 0-22.388-8.595c-18.446 0-33.453 15.007-33.453 33.454a1.5 1.5 0 0 0 1.5 1.5h29.947A1.5 1.5 0 0 0 37 78.392z"/>
</svg>
