<?xml version="1.0" encoding="UTF-8"?> <svg xmlns="http://www.w3.org/2000/svg" width="200" height="215" viewBox="0 0 200 215" fill="none"><mask id="mask0_363_303" style="mask-type:luminance" maskUnits="userSpaceOnUse" x="20" y="31" width="154" height="155"><path d="M96.8407 185.19C139.157 185.19 173.461 150.886 173.461 108.57C173.461 66.2539 139.157 31.95 96.8407 31.95C54.5246 31.95 20.2207 66.2539 20.2207 108.57C20.2207 150.886 54.5246 185.19 96.8407 185.19Z" fill="white"></path></mask><g mask="url(#mask0_363_303)"><path d="M0.0410156 60.86L199.131 0.119995" stroke="white" stroke-width="0.25" stroke-miterlimit="10"></path><path d="M0.0410156 67.53L199.131 6.78999" stroke="white" stroke-width="0.25" stroke-miterlimit="10"></path><path d="M0.0410156 74.21L199.131 13.46" stroke="white" stroke-width="0.25" stroke-miterlimit="10"></path><path d="M0.0410156 80.88L199.131 20.14" stroke="white" stroke-width="0.25" stroke-miterlimit="10"></path><path d="M0.0410156 87.55L199.131 26.81" stroke="white" stroke-width="0.25" stroke-miterlimit="10"></path><path d="M0.0410156 94.22L199.131 33.48" stroke="white" stroke-width="0.25" stroke-miterlimit="10"></path><path d="M0.0410156 100.89L199.131 40.15" stroke="white" stroke-width="0.25" stroke-miterlimit="10"></path><path d="M0.0410156 107.57L199.131 46.83" stroke="white" stroke-width="0.25" stroke-miterlimit="10"></path><path d="M0.0410156 114.24L199.131 53.5" stroke="white" stroke-width="0.25" stroke-miterlimit="10"></path><path d="M0.0410156 120.91L199.131 60.17" stroke="white" stroke-width="0.25" stroke-miterlimit="10"></path><path d="M0.0410156 127.58L199.131 66.84" stroke="white" stroke-width="0.25" stroke-miterlimit="10"></path><path d="M0.0410156 134.26L199.131 73.51" stroke="white" stroke-width="0.25" stroke-miterlimit="10"></path><path d="M0.0410156 140.93L199.131 80.19" stroke="white" stroke-width="0.25" stroke-miterlimit="10"></path><path d="M0.0410156 147.6L199.131 86.86" stroke="white" stroke-width="0.25" stroke-miterlimit="10"></path><path d="M0.0410156 154.27L199.131 93.53" stroke="white" stroke-width="0.25" stroke-miterlimit="10"></path><path d="M0.0410156 160.94L199.131 100.2" stroke="white" stroke-width="0.25" stroke-miterlimit="10"></path><path d="M0.0410156 167.62L199.131 106.88" stroke="white" stroke-width="0.25" stroke-miterlimit="10"></path><path d="M0.0410156 174.29L199.131 113.55" stroke="white" stroke-width="0.25" stroke-miterlimit="10"></path><path d="M0.0410156 180.96L199.131 120.22" stroke="white" stroke-width="0.25" stroke-miterlimit="10"></path><path d="M0.0410156 187.63L199.131 126.89" stroke="white" stroke-width="0.25" stroke-miterlimit="10"></path><path d="M0.0410156 194.31L199.131 133.57" stroke="white" stroke-width="0.25" stroke-miterlimit="10"></path><path d="M0.0410156 200.98L199.131 140.24" stroke="white" stroke-width="0.25" stroke-miterlimit="10"></path><path d="M0.0410156 207.65L199.131 146.91" stroke="white" stroke-width="0.25" stroke-miterlimit="10"></path><path d="M0.0410156 214.32L199.131 153.58" stroke="white" stroke-width="0.25" stroke-miterlimit="10"></path></g></svg> 