<?xml version="1.0" encoding="UTF-8"?> <svg xmlns="http://www.w3.org/2000/svg" width="97" height="97" viewBox="0 0 97 97" fill="none"> <g clip-path="url(#clip0_361_177)"> <path d="M0 48.26H25.95" stroke="#D9D9D9" stroke-width="2" stroke-miterlimit="10"></path> <path d="M48.2598 0V25.95" stroke="#D9D9D9" stroke-width="2" stroke-miterlimit="10"></path> <path d="M48.2598 70.57V96.52" stroke="#D9D9D9" stroke-width="2" stroke-miterlimit="10"></path> <path d="M14.1406 14.14L32.4806 32.48" stroke="#D9D9D9" stroke-width="2" stroke-miterlimit="10"></path> <path d="M32.4806 64.04L14.1406 82.39" stroke="#D9D9D9" stroke-width="2" stroke-miterlimit="10"></path> <path d="M3.49023 30.24L27.5602 39.93" stroke="#D9D9D9" stroke-width="2" stroke-miterlimit="10"></path> <path d="M39.9302 68.96L30.2402 93.03" stroke="#D9D9D9" stroke-width="2" stroke-miterlimit="10"></path> <path d="M29.3398 3.86L39.5098 27.73" stroke="#D9D9D9" stroke-width="2" stroke-miterlimit="10"></path> <path d="M27.7294 57.01L3.85938 67.18" stroke="#D9D9D9" stroke-width="2" stroke-miterlimit="10"></path> <path d="M1.0293 38.32L26.4293 43.67" stroke="#D9D9D9" stroke-width="2" stroke-miterlimit="10"></path> <path d="M43.6703 70.09L38.3203 95.49" stroke="#D9D9D9" stroke-width="2" stroke-miterlimit="10"></path> <path d="M21.8906 7.84L36.0706 29.57" stroke="#D9D9D9" stroke-width="2" stroke-miterlimit="10"></path> <path d="M29.5698 60.45L7.83984 74.63" stroke="#D9D9D9" stroke-width="2" stroke-miterlimit="10"></path> <path d="M8.16016 21.41L29.7202 35.85" stroke="#D9D9D9" stroke-width="2" stroke-miterlimit="10"></path> <path d="M35.8502 66.8L21.4102 88.36" stroke="#D9D9D9" stroke-width="2" stroke-miterlimit="10"></path> <path d="M38.8906 0.92L43.9306 26.37" stroke="#D9D9D9" stroke-width="2" stroke-miterlimit="10"></path> <path d="M26.3699 52.59L0.919922 57.63" stroke="#D9D9D9" stroke-width="2" stroke-miterlimit="10"></path> <path d="M96.45 48.26H70.5" stroke="#D9D9D9" stroke-width="2" stroke-miterlimit="10"></path> <path d="M82.309 82.39L63.959 64.04" stroke="#D9D9D9" stroke-width="2" stroke-miterlimit="10"></path> <path d="M63.959 32.48L82.309 14.14" stroke="#D9D9D9" stroke-width="2" stroke-miterlimit="10"></path> <path d="M92.9589 66.28L68.8789 56.59" stroke="#D9D9D9" stroke-width="2" stroke-miterlimit="10"></path> <path d="M56.5195 27.56L66.1995 3.49" stroke="#D9D9D9" stroke-width="2" stroke-miterlimit="10"></path> <path d="M67.0997 92.66L56.9297 68.79" stroke="#D9D9D9" stroke-width="2" stroke-miterlimit="10"></path> <path d="M68.709 39.51L92.579 29.34" stroke="#D9D9D9" stroke-width="2" stroke-miterlimit="10"></path> <path d="M95.4095 58.2L70.0195 52.86" stroke="#D9D9D9" stroke-width="2" stroke-miterlimit="10"></path> <path d="M52.7793 26.43L58.1193 1.03" stroke="#D9D9D9" stroke-width="2" stroke-miterlimit="10"></path> <path d="M74.5489 88.68L60.3789 66.95" stroke="#D9D9D9" stroke-width="2" stroke-miterlimit="10"></path> <path d="M66.8691 36.07L88.6091 21.89" stroke="#D9D9D9" stroke-width="2" stroke-miterlimit="10"></path> <path d="M88.2905 75.11L66.7305 60.67" stroke="#D9D9D9" stroke-width="2" stroke-miterlimit="10"></path> <path d="M60.5996 29.72L75.0396 8.16" stroke="#D9D9D9" stroke-width="2" stroke-miterlimit="10"></path> <path d="M57.5595 95.6L52.5195 70.15" stroke="#D9D9D9" stroke-width="2" stroke-miterlimit="10"></path> <path d="M70.0703 43.93L95.5303 38.89" stroke="#D9D9D9" stroke-width="2" stroke-miterlimit="10"></path> </g> <defs> <clipPath id="clip0_361_177"> <rect width="96.45" height="96.52" fill="white"></rect> </clipPath> </defs> </svg> 