<svg xmlns="http://www.w3.org/2000/svg" fill-rule="evenodd" viewBox="0 0 100 100">
    <path d="M31.276 52.042c9.435 0 17.111-7.676 17.111-17.111S40.711 17.82 31.276 17.82s-17.111 7.676-17.111 17.111 7.676 17.111 17.111 17.111zm0-31.222c7.781 0 14.111 6.33 14.111 14.111 0 7.781-6.33 14.111-14.111 14.111s-14.111-6.33-14.111-14.111c0-7.781 6.33-14.111 14.111-14.111z"/>
    <path d="M31.273 45.43a7.27 7.27 0 0 0 6.949-5.062 1.5 1.5 0 0 0-2.857-.915 4.278 4.278 0 0 1-4.091 2.978 4.275 4.275 0 0 1-4.09-2.979 1.499 1.499 0 1 0-2.857.913 7.262 7.262 0 0 0 6.946 5.065zm39.963 1.854a26.703 26.703 0 0 0-21.89 11.441 1.606 1.606 0 0 0-.071.111l-.596 1.04a29.353 29.353 0 0 0-16.916-5.348c-16.283 0-29.53 13.249-29.53 29.535a1.5 1.5 0 0 0 1.5 1.5h56.061a1.5 1.5 0 0 0 1.5-1.5c0-2.998-.452-5.892-1.286-8.62h36.384a1.5 1.5 0 0 0 1.5-1.5c0-14.7-11.957-26.659-26.656-26.659zM5.275 82.564c.781-13.936 12.363-25.035 26.488-25.035s25.708 11.1 26.489 25.035H5.275zm53.634-10.12a29.677 29.677 0 0 0-7.841-10.702l.777-1.355a23.705 23.705 0 0 1 19.392-10.103c12.54 0 22.832 9.81 23.608 22.16H58.909zm11.89-27.085c8.553 0 15.511-6.958 15.511-15.511s-6.958-15.511-15.511-15.511-15.511 6.958-15.511 15.511 6.958 15.511 15.511 15.511zm0-28.022c6.898 0 12.511 5.612 12.511 12.511 0 6.899-5.612 12.511-12.511 12.511s-12.511-5.612-12.511-12.511c0-6.899 5.612-12.511 12.511-12.511z"/>
    <path d="M70.798 39.424a5.835 5.835 0 0 0 5.572-4.059 1.5 1.5 0 1 0-2.856-.919c-.381 1.183-1.473 1.978-2.717 1.978s-2.336-.794-2.716-1.977a1.5 1.5 0 1 0-2.856.917 5.834 5.834 0 0 0 5.573 4.06z"/>
</svg>
