<?xml version="1.0" encoding="UTF-8"?> <svg xmlns="http://www.w3.org/2000/svg" width="15" height="116" viewBox="0 0 15 116" fill="none"> <g clip-path="url(#clip0_363_218)"> <path d="M14.6702 115.72L0.160156 104.17" stroke="#FED937" stroke-width="0.5" stroke-miterlimit="10"></path> <path d="M14.6702 109.95L0.160156 98.39" stroke="#FED937" stroke-width="0.5" stroke-miterlimit="10"></path> <path d="M14.6702 104.17L0.160156 92.62" stroke="#FED937" stroke-width="0.5" stroke-miterlimit="10"></path> <path d="M14.6702 98.39L0.160156 86.84" stroke="#FED937" stroke-width="0.5" stroke-miterlimit="10"></path> <path d="M14.6702 92.62L0.160156 81.07" stroke="#FED937" stroke-width="0.5" stroke-miterlimit="10"></path> <path d="M14.6702 86.84L0.160156 75.29" stroke="#FED937" stroke-width="0.5" stroke-miterlimit="10"></path> <path d="M14.6702 81.07L0.160156 69.51" stroke="#FED937" stroke-width="0.5" stroke-miterlimit="10"></path> <path d="M14.6702 75.29L0.160156 63.74" stroke="#FED937" stroke-width="0.5" stroke-miterlimit="10"></path> <path d="M14.6702 69.51L0.160156 57.96" stroke="#FED937" stroke-width="0.5" stroke-miterlimit="10"></path> <path d="M14.6702 63.74L0.160156 52.18" stroke="#FED937" stroke-width="0.5" stroke-miterlimit="10"></path> <path d="M14.6702 57.96L0.160156 46.41" stroke="#FED937" stroke-width="0.5" stroke-miterlimit="10"></path> <path d="M14.6702 52.18L0.160156 40.63" stroke="#FED937" stroke-width="0.5" stroke-miterlimit="10"></path> <path d="M14.6702 46.41L0.160156 34.85" stroke="#FED937" stroke-width="0.5" stroke-miterlimit="10"></path> <path d="M14.6702 40.63L0.160156 29.08" stroke="#FED937" stroke-width="0.5" stroke-miterlimit="10"></path> <path d="M14.6702 34.85L0.160156 23.3" stroke="#FED937" stroke-width="0.5" stroke-miterlimit="10"></path> <path d="M14.6702 29.08L0.160156 17.52" stroke="#FED937" stroke-width="0.5" stroke-miterlimit="10"></path> <path d="M14.6702 23.3L0.160156 11.75" stroke="#FED937" stroke-width="0.5" stroke-miterlimit="10"></path> <path d="M14.6702 17.52L0.160156 5.97" stroke="#FED937" stroke-width="0.5" stroke-miterlimit="10"></path> <path d="M14.6702 11.75L0.160156 0.200001" stroke="#FED937" stroke-width="0.5" stroke-miterlimit="10"></path> </g> <defs> <clipPath id="clip0_363_218"> <rect width="14.83" height="115.92" fill="white"></rect> </clipPath> </defs> </svg> 